<mxfile host="app.diagrams.net" agent="Mozilla/5.0 (Macintosh; Intel Mac OS X 10_15_7) AppleWebKit/537.36 (KHTML, like Gecko) Chrome/130.0.0.0 Safari/537.36" version="24.8.3">
  <diagram name="페이지-1" id="PNMwG0dznezkgApgFguq">
    <mxGraphModel dx="1193" dy="671" grid="1" gridSize="10" guides="1" tooltips="1" connect="1" arrows="1" fold="1" page="1" pageScale="1" pageWidth="827" pageHeight="1169" math="0" shadow="0">
      <root>
        <mxCell id="0" />
        <mxCell id="1" parent="0" />
        <mxCell id="dA3_tUC19guJ359VdGDN-20" value="시스템" style="rounded=0;whiteSpace=wrap;html=1;verticalAlign=top;fontStyle=1" vertex="1" parent="1">
          <mxGeometry x="120" y="120" width="720" height="840" as="geometry" />
        </mxCell>
        <mxCell id="dA3_tUC19guJ359VdGDN-21" value="레스토랑 정보 확인" style="shape=folder;fontStyle=1;spacingTop=10;tabWidth=40;tabHeight=14;tabPosition=left;html=1;whiteSpace=wrap;verticalAlign=top;" vertex="1" parent="1">
          <mxGeometry x="519" y="160" width="311" height="360" as="geometry" />
        </mxCell>
        <mxCell id="5oQ-d2psGQRA80VaCwxz-2" value="레스토랑 검색" style="ellipse;whiteSpace=wrap;html=1;" parent="1" vertex="1">
          <mxGeometry x="230" y="140" width="130" height="60" as="geometry" />
        </mxCell>
        <mxCell id="5oQ-d2psGQRA80VaCwxz-4" value="&amp;lt;&amp;lt;extend&amp;gt;&amp;gt;" style="rounded=0;orthogonalLoop=1;jettySize=auto;html=1;entryX=1;entryY=0;entryDx=0;entryDy=0;dashed=1;" parent="1" source="5oQ-d2psGQRA80VaCwxz-11" target="5oQ-d2psGQRA80VaCwxz-21" edge="1">
          <mxGeometry x="0.3699" y="10" relative="1" as="geometry">
            <mxPoint x="639.9999999999964" y="860" as="targetPoint" />
            <mxPoint y="-1" as="offset" />
          </mxGeometry>
        </mxCell>
        <mxCell id="5oQ-d2psGQRA80VaCwxz-5" value="&amp;lt;&amp;lt;extend&amp;gt;&amp;gt;" style="rounded=0;orthogonalLoop=1;jettySize=auto;html=1;entryX=1;entryY=0.5;entryDx=0;entryDy=0;dashed=1;" parent="1" source="5oQ-d2psGQRA80VaCwxz-11" target="5oQ-d2psGQRA80VaCwxz-2" edge="1">
          <mxGeometry x="0.4734" y="-3" relative="1" as="geometry">
            <mxPoint as="offset" />
          </mxGeometry>
        </mxCell>
        <mxCell id="5oQ-d2psGQRA80VaCwxz-9" value="&amp;lt;&amp;lt;extend&amp;gt;&amp;gt;" style="rounded=0;orthogonalLoop=1;jettySize=auto;html=1;entryX=1;entryY=0.5;entryDx=0;entryDy=0;dashed=1;" parent="1" source="5oQ-d2psGQRA80VaCwxz-11" target="5oQ-d2psGQRA80VaCwxz-16" edge="1">
          <mxGeometry x="0.3846" y="4" relative="1" as="geometry">
            <mxPoint x="639.9999999999964" y="590" as="targetPoint" />
            <mxPoint as="offset" />
          </mxGeometry>
        </mxCell>
        <mxCell id="5oQ-d2psGQRA80VaCwxz-70" value="&amp;lt;&amp;lt;exend&amp;gt;&amp;gt;" style="rounded=0;orthogonalLoop=1;jettySize=auto;html=1;entryX=1;entryY=0.5;entryDx=0;entryDy=0;dashed=1;" parent="1" source="5oQ-d2psGQRA80VaCwxz-11" target="5oQ-d2psGQRA80VaCwxz-30" edge="1">
          <mxGeometry x="0.3658" y="-3" relative="1" as="geometry">
            <mxPoint as="offset" />
          </mxGeometry>
        </mxCell>
        <mxCell id="5oQ-d2psGQRA80VaCwxz-11" value="레스토랑 정보 확인" style="ellipse;whiteSpace=wrap;html=1;" parent="1" vertex="1">
          <mxGeometry x="609.5" y="216" width="130" height="60" as="geometry" />
        </mxCell>
        <mxCell id="dA3_tUC19guJ359VdGDN-25" style="edgeStyle=orthogonalEdgeStyle;rounded=0;orthogonalLoop=1;jettySize=auto;html=1;entryX=0.5;entryY=1;entryDx=0;entryDy=0;endArrow=block;endFill=0;endSize=15;exitX=0.5;exitY=0;exitDx=0;exitDy=0;" edge="1" parent="1" source="5oQ-d2psGQRA80VaCwxz-12" target="5oQ-d2psGQRA80VaCwxz-30">
          <mxGeometry relative="1" as="geometry">
            <Array as="points">
              <mxPoint x="375" y="320" />
              <mxPoint x="295" y="320" />
            </Array>
          </mxGeometry>
        </mxCell>
        <mxCell id="5oQ-d2psGQRA80VaCwxz-12" value="키워드 기반 추천" style="ellipse;whiteSpace=wrap;html=1;" parent="1" vertex="1">
          <mxGeometry x="310" y="330" width="130" height="60" as="geometry" />
        </mxCell>
        <mxCell id="5oQ-d2psGQRA80VaCwxz-16" value="관심목록 관리" style="ellipse;whiteSpace=wrap;html=1;" parent="1" vertex="1">
          <mxGeometry x="230" y="436" width="130" height="60" as="geometry" />
        </mxCell>
        <mxCell id="5oQ-d2psGQRA80VaCwxz-20" value="&amp;lt;&amp;lt;include&amp;gt;&amp;gt;" style="rounded=0;orthogonalLoop=1;jettySize=auto;html=1;entryX=0;entryY=0.5;entryDx=0;entryDy=0;dashed=1;startArrow=none;startFill=0;endArrow=classic;endFill=1;" parent="1" source="5oQ-d2psGQRA80VaCwxz-21" target="5oQ-d2psGQRA80VaCwxz-35" edge="1">
          <mxGeometry x="0.0003" relative="1" as="geometry">
            <mxPoint as="offset" />
          </mxGeometry>
        </mxCell>
        <mxCell id="5oQ-d2psGQRA80VaCwxz-21" value="방문기록 및 선호도 관리" style="ellipse;whiteSpace=wrap;html=1;" parent="1" vertex="1">
          <mxGeometry x="219.5" y="560" width="151" height="60" as="geometry" />
        </mxCell>
        <mxCell id="5oQ-d2psGQRA80VaCwxz-22" value="로그인" style="ellipse;whiteSpace=wrap;html=1;" parent="1" vertex="1">
          <mxGeometry x="500" y="640.0000000000001" width="130" height="60" as="geometry" />
        </mxCell>
        <mxCell id="5oQ-d2psGQRA80VaCwxz-23" value="&amp;lt;&amp;lt;include&amp;gt;&amp;gt;" style="rounded=0;orthogonalLoop=1;jettySize=auto;html=1;entryX=0;entryY=0.5;entryDx=0;entryDy=0;dashed=1;" parent="1" source="5oQ-d2psGQRA80VaCwxz-24" target="5oQ-d2psGQRA80VaCwxz-53" edge="1">
          <mxGeometry relative="1" as="geometry" />
        </mxCell>
        <mxCell id="5oQ-d2psGQRA80VaCwxz-24" value="사용자 프로필 전환" style="ellipse;whiteSpace=wrap;html=1;" parent="1" vertex="1">
          <mxGeometry x="230" y="730.0000000000001" width="130" height="60" as="geometry" />
        </mxCell>
        <mxCell id="5oQ-d2psGQRA80VaCwxz-30" value="레스토랑 추천" style="ellipse;whiteSpace=wrap;html=1;" parent="1" vertex="1">
          <mxGeometry x="230" y="227" width="130" height="60" as="geometry" />
        </mxCell>
        <mxCell id="dA3_tUC19guJ359VdGDN-24" style="edgeStyle=orthogonalEdgeStyle;rounded=0;orthogonalLoop=1;jettySize=auto;html=1;entryX=0.5;entryY=1;entryDx=0;entryDy=0;endArrow=block;endFill=0;endSize=15;" edge="1" parent="1" source="5oQ-d2psGQRA80VaCwxz-31" target="5oQ-d2psGQRA80VaCwxz-30">
          <mxGeometry relative="1" as="geometry">
            <Array as="points">
              <mxPoint x="215" y="320" />
              <mxPoint x="295" y="320" />
            </Array>
          </mxGeometry>
        </mxCell>
        <mxCell id="5oQ-d2psGQRA80VaCwxz-31" value="사용자 선호도 기반 추천" style="ellipse;whiteSpace=wrap;html=1;" parent="1" vertex="1">
          <mxGeometry x="140" y="330" width="150" height="60" as="geometry" />
        </mxCell>
        <mxCell id="5oQ-d2psGQRA80VaCwxz-35" value="좋아요 / 싫어요" style="ellipse;whiteSpace=wrap;html=1;" parent="1" vertex="1">
          <mxGeometry x="500" y="560" width="130" height="60" as="geometry" />
        </mxCell>
        <mxCell id="5oQ-d2psGQRA80VaCwxz-36" value="&amp;lt;&amp;lt;include&amp;gt;&amp;gt;" style="rounded=0;orthogonalLoop=1;jettySize=auto;html=1;entryX=0;entryY=0.5;entryDx=0;entryDy=0;dashed=1;" parent="1" source="5oQ-d2psGQRA80VaCwxz-37" target="5oQ-d2psGQRA80VaCwxz-22" edge="1">
          <mxGeometry relative="1" as="geometry" />
        </mxCell>
        <mxCell id="5oQ-d2psGQRA80VaCwxz-37" value="개인 데이터 불러오기" style="ellipse;whiteSpace=wrap;html=1;" parent="1" vertex="1">
          <mxGeometry x="230" y="640.0000000000001" width="130" height="60" as="geometry" />
        </mxCell>
        <mxCell id="5oQ-d2psGQRA80VaCwxz-38" style="rounded=0;orthogonalLoop=1;jettySize=auto;html=1;entryX=0;entryY=0.5;entryDx=0;entryDy=0;" parent="1" source="5oQ-d2psGQRA80VaCwxz-45" target="5oQ-d2psGQRA80VaCwxz-2" edge="1">
          <mxGeometry relative="1" as="geometry" />
        </mxCell>
        <mxCell id="5oQ-d2psGQRA80VaCwxz-39" style="rounded=0;orthogonalLoop=1;jettySize=auto;html=1;entryX=0;entryY=0.5;entryDx=0;entryDy=0;" parent="1" source="5oQ-d2psGQRA80VaCwxz-45" target="5oQ-d2psGQRA80VaCwxz-21" edge="1">
          <mxGeometry relative="1" as="geometry" />
        </mxCell>
        <mxCell id="5oQ-d2psGQRA80VaCwxz-40" style="rounded=0;orthogonalLoop=1;jettySize=auto;html=1;entryX=0;entryY=0.5;entryDx=0;entryDy=0;" parent="1" source="5oQ-d2psGQRA80VaCwxz-45" target="5oQ-d2psGQRA80VaCwxz-16" edge="1">
          <mxGeometry relative="1" as="geometry" />
        </mxCell>
        <mxCell id="5oQ-d2psGQRA80VaCwxz-41" style="rounded=0;orthogonalLoop=1;jettySize=auto;html=1;entryX=0;entryY=0.5;entryDx=0;entryDy=0;" parent="1" source="5oQ-d2psGQRA80VaCwxz-45" target="5oQ-d2psGQRA80VaCwxz-30" edge="1">
          <mxGeometry relative="1" as="geometry" />
        </mxCell>
        <mxCell id="5oQ-d2psGQRA80VaCwxz-43" style="rounded=0;orthogonalLoop=1;jettySize=auto;html=1;entryX=0;entryY=0.5;entryDx=0;entryDy=0;" parent="1" source="5oQ-d2psGQRA80VaCwxz-45" target="5oQ-d2psGQRA80VaCwxz-37" edge="1">
          <mxGeometry relative="1" as="geometry" />
        </mxCell>
        <mxCell id="5oQ-d2psGQRA80VaCwxz-44" style="rounded=0;orthogonalLoop=1;jettySize=auto;html=1;entryX=0;entryY=0.5;entryDx=0;entryDy=0;" parent="1" source="5oQ-d2psGQRA80VaCwxz-45" target="5oQ-d2psGQRA80VaCwxz-24" edge="1">
          <mxGeometry relative="1" as="geometry" />
        </mxCell>
        <mxCell id="dA3_tUC19guJ359VdGDN-11" style="rounded=0;orthogonalLoop=1;jettySize=auto;html=1;entryX=0;entryY=0.5;entryDx=0;entryDy=0;" edge="1" parent="1" source="5oQ-d2psGQRA80VaCwxz-45" target="dA3_tUC19guJ359VdGDN-5">
          <mxGeometry relative="1" as="geometry" />
        </mxCell>
        <mxCell id="5oQ-d2psGQRA80VaCwxz-45" value="사용자" style="shape=umlActor;verticalLabelPosition=bottom;verticalAlign=top;html=1;outlineConnect=0;" parent="1" vertex="1">
          <mxGeometry x="11" y="330" width="30" height="60" as="geometry" />
        </mxCell>
        <mxCell id="5oQ-d2psGQRA80VaCwxz-46" value="&amp;lt;&amp;lt;extend&amp;gt;&amp;gt;" style="rounded=0;orthogonalLoop=1;jettySize=auto;html=1;entryX=0.5;entryY=1;entryDx=0;entryDy=0;dashed=1;" parent="1" source="5oQ-d2psGQRA80VaCwxz-47" target="5oQ-d2psGQRA80VaCwxz-11" edge="1">
          <mxGeometry relative="1" as="geometry" />
        </mxCell>
        <mxCell id="dA3_tUC19guJ359VdGDN-18" value="&amp;lt;&amp;lt;include&amp;gt;&amp;gt;" style="rounded=0;orthogonalLoop=1;jettySize=auto;html=1;entryX=0.5;entryY=0;entryDx=0;entryDy=0;dashed=1;" edge="1" parent="1" source="5oQ-d2psGQRA80VaCwxz-47" target="dA3_tUC19guJ359VdGDN-12">
          <mxGeometry relative="1" as="geometry" />
        </mxCell>
        <mxCell id="5oQ-d2psGQRA80VaCwxz-47" value="미디어 컨텐츠 재생" style="ellipse;whiteSpace=wrap;html=1;" parent="1" vertex="1">
          <mxGeometry x="609.5" y="329.9999999999999" width="130" height="60" as="geometry" />
        </mxCell>
        <mxCell id="5oQ-d2psGQRA80VaCwxz-48" value="&amp;lt;&amp;lt;include&amp;gt;&amp;gt;" style="rounded=0;orthogonalLoop=1;jettySize=auto;html=1;entryX=0.275;entryY=0.956;entryDx=0;entryDy=0;dashed=1;endArrow=none;endFill=0;startArrow=classic;startFill=1;exitX=0.5;exitY=0;exitDx=0;exitDy=0;entryPerimeter=0;" parent="1" source="5oQ-d2psGQRA80VaCwxz-49" target="5oQ-d2psGQRA80VaCwxz-47" edge="1">
          <mxGeometry relative="1" as="geometry">
            <mxPoint x="609.7952225882991" y="531.0885010525603" as="sourcePoint" />
          </mxGeometry>
        </mxCell>
        <mxCell id="5oQ-d2psGQRA80VaCwxz-49" value="재생 기록 저장" style="ellipse;whiteSpace=wrap;html=1;" parent="1" vertex="1">
          <mxGeometry x="540" y="436" width="130" height="60" as="geometry" />
        </mxCell>
        <mxCell id="5oQ-d2psGQRA80VaCwxz-50" style="edgeStyle=orthogonalEdgeStyle;rounded=0;orthogonalLoop=1;jettySize=auto;html=1;exitX=0.5;exitY=1;exitDx=0;exitDy=0;" parent="1" edge="1">
          <mxGeometry relative="1" as="geometry">
            <mxPoint x="584" y="439.99999999999994" as="sourcePoint" />
            <mxPoint x="584" y="439.99999999999994" as="targetPoint" />
          </mxGeometry>
        </mxCell>
        <mxCell id="5oQ-d2psGQRA80VaCwxz-51" value="&amp;lt;&amp;lt;include&amp;gt;&amp;gt;" style="rounded=0;orthogonalLoop=1;jettySize=auto;html=1;entryX=1;entryY=0.5;entryDx=0;entryDy=0;startArrow=classic;startFill=1;endArrow=none;endFill=0;dashed=1;" parent="1" source="5oQ-d2psGQRA80VaCwxz-52" target="5oQ-d2psGQRA80VaCwxz-24" edge="1">
          <mxGeometry relative="1" as="geometry" />
        </mxCell>
        <mxCell id="5oQ-d2psGQRA80VaCwxz-52" value="프로필 별 정보 불러오기" style="ellipse;whiteSpace=wrap;html=1;" parent="1" vertex="1">
          <mxGeometry x="490" y="730.0000000000001" width="150" height="60" as="geometry" />
        </mxCell>
        <mxCell id="5oQ-d2psGQRA80VaCwxz-53" value="프로필 정보 관리" style="ellipse;whiteSpace=wrap;html=1;" parent="1" vertex="1">
          <mxGeometry x="490" y="820.0000000000001" width="150" height="60" as="geometry" />
        </mxCell>
        <mxCell id="dA3_tUC19guJ359VdGDN-7" style="edgeStyle=orthogonalEdgeStyle;rounded=0;orthogonalLoop=1;jettySize=auto;html=1;entryX=1;entryY=0.5;entryDx=0;entryDy=0;" edge="1" parent="1" source="dA3_tUC19guJ359VdGDN-1" target="dA3_tUC19guJ359VdGDN-6">
          <mxGeometry relative="1" as="geometry" />
        </mxCell>
        <mxCell id="dA3_tUC19guJ359VdGDN-1" value="webOS" style="shape=umlActor;verticalLabelPosition=bottom;verticalAlign=top;html=1;outlineConnect=0;" vertex="1" parent="1">
          <mxGeometry x="870" y="870" width="30" height="60" as="geometry" />
        </mxCell>
        <mxCell id="dA3_tUC19guJ359VdGDN-10" value="&amp;lt;&amp;lt;include&amp;gt;&amp;gt;" style="edgeStyle=orthogonalEdgeStyle;rounded=0;orthogonalLoop=1;jettySize=auto;html=1;entryX=0;entryY=0.5;entryDx=0;entryDy=0;dashed=1;" edge="1" parent="1" source="dA3_tUC19guJ359VdGDN-5" target="dA3_tUC19guJ359VdGDN-6">
          <mxGeometry relative="1" as="geometry" />
        </mxCell>
        <mxCell id="dA3_tUC19guJ359VdGDN-5" value="시스템 자원 현황 조회" style="ellipse;whiteSpace=wrap;html=1;" vertex="1" parent="1">
          <mxGeometry x="230" y="870.0000000000001" width="130" height="60" as="geometry" />
        </mxCell>
        <mxCell id="dA3_tUC19guJ359VdGDN-6" value="시스템 자원 현황 제공" style="ellipse;whiteSpace=wrap;html=1;" vertex="1" parent="1">
          <mxGeometry x="679" y="870.0000000000001" width="130" height="60" as="geometry" />
        </mxCell>
        <mxCell id="dA3_tUC19guJ359VdGDN-12" value="미디어 컨텐츠 관리" style="ellipse;whiteSpace=wrap;html=1;" vertex="1" parent="1">
          <mxGeometry x="679" y="436" width="130" height="60" as="geometry" />
        </mxCell>
        <mxCell id="dA3_tUC19guJ359VdGDN-14" style="rounded=0;orthogonalLoop=1;jettySize=auto;html=1;entryX=1;entryY=0.5;entryDx=0;entryDy=0;" edge="1" parent="1" source="dA3_tUC19guJ359VdGDN-13" target="dA3_tUC19guJ359VdGDN-12">
          <mxGeometry relative="1" as="geometry" />
        </mxCell>
        <mxCell id="dA3_tUC19guJ359VdGDN-13" value="관리자" style="shape=umlActor;verticalLabelPosition=bottom;verticalAlign=top;html=1;outlineConnect=0;" vertex="1" parent="1">
          <mxGeometry x="870" y="436" width="30" height="60" as="geometry" />
        </mxCell>
      </root>
    </mxGraphModel>
  </diagram>
</mxfile>
